<svg version="1.1" xmlns="http://www.w3.org/2000/svg" xmlns:xlink="http://www.w3.org/1999/xlink">
    <symbol id="address" viewBox="0 0 214.301 386.896">
      <path fill="#553322" d="M208.336,142.159c-11.894,48.331-77.374,149.528-77.374,149.528s-11.906,17.859-23.812,17.859s-23.812-17.859-23.812-17.859S17.859,190.49,5.971,142.159C2.167,131.17,0,119.425,0,107.151C0,47.974,47.974,0,107.151,0s107.15,47.974,107.15,107.151C214.301,119.425,212.14,131.17,208.336,142.159z M107.151,65.481c-23.014,0-41.67,18.656-41.67,41.67c0,23.013,18.656,41.669,41.67,41.669s41.67-18.656,41.67-41.669C148.821,84.137,130.164,65.481,107.151,65.481z M107.151,327.441c49.313,0,89.292,13.305,89.292,29.727c0,16.418-39.979,29.729-89.292,29.729s-89.292-13.311-89.292-29.729C17.859,340.746,57.838,327.441,107.151,327.441z"/>  
    </symbol>
      
    <symbol id="phone" viewBox="0 0 214.301 386.896">
      <path fill="#A9B0B9" d="M27.438,0C12.369,0,0,12.72,0,28.208v330.479c0,15.487,12.369,28.209,27.438,28.209h159.42c15.07,0,27.442-12.722,27.442-28.209V28.208C214.297,12.72,201.924,0,186.859,0H27.438L27.438,0z M23.52,361.425v-17.191l33.451-0.112v17.303H23.52L23.52,361.425z M69.515,309.722v-56.091h75.266v56.096H69.515V309.722z M23.52,283.723v-30.092h33.451v30.092H23.52L23.52,283.723z M157.321,283.723l0.004-30.092h33.452v30.092H157.321L157.321,283.723z M23.52,309.722v-17.19h33.451v17.19H23.52L23.52,309.722z M157.324,309.722v-17.19h33.452v17.19H157.324L157.324,309.722z M23.52,335.516v-17.191h33.451v17.191H23.52L23.52,335.516z M157.324,335.516v-17.191h33.452v17.191H157.324L157.324,335.516z M111.33,335.516v-17.191h33.451v17.191H111.33L111.33,335.516z M69.515,335.516v-17.191h33.452v17.191H69.515L69.515,335.516z M157.324,361.425v-17.303h33.452l0.004,17.303H157.324L157.324,361.425z M111.33,361.308v-17.19h33.451v17.19H111.33L111.33,361.308z M69.515,361.308v-17.19h33.452v17.19H69.515L69.515,361.308z M77.874,21.494h58.544v17.195H77.874V21.494L77.874,21.494z M23.52,55.885h167.251v180.551H23.52V55.885z"/>  
    </symbol>

    <view id="address" viewBox="0 0 214.301 386.896" />
    <view id="phone" viewBox="0 0 214.301 386.896" />

    <use xlink:href="#address" width="15" height="22" x="0" y="0"></use>
    <use xlink:href="#phone" width="15" height="22" x="0" y="25"></use>    
</svg>